<svg id="Layer_1" data-name="Layer 1" xmlns="http://www.w3.org/2000/svg" viewBox="0 0 367.31 530.37"><path d="M388,582.69c-1.55-2-2.75-3.32-3.67-4.79-6.11-9.88-12.61-19.54-18-29.8a23.8,23.8,0,0,1-2.44-14.47c3.82-19.69.34-38.44-4.52-57.43-2.41-9.38-2.65-19.41-3-29.18s3.27-18.38,8.83-26.4a78.38,78.38,0,0,0,8.28-14.93c7-17.22,17.48-31.7,30-45.52,24.72-27.25,56.34-42.5,89.35-56.07,18.61-7.66,37.07-15.7,55.51-23.75,3.2-1.4,5-4.46,9.35-5.14,9.9-1.53,18.72,1.69,27.38,4.56,18.85,6.23,36.66,15.09,52.27,27.51,12.55,10,24.73,20.49,36.3,31.59,5.59,5.36,10.12,12.19,13.86,19.06,10.67,19.56,16.59,41,23.62,62,2.17,6.48,4,13.12,6.8,19.35,6.34,14.26,6,29.29,5.45,44.25-.73,20.13-2.12,40.24-3.34,60.35a30.05,30.05,0,0,1-1.52,7.61c-1.58,4.82-1.6,8.75,2.06,13.21,2.28,2.77,2.86,7.73,2.65,11.62-.75,13.82-2.13,27.62-3.32,41.42q-1.53,17.7-3.18,35.39a59,59,0,0,1-1.17,9.34c-.68,2.63-1.52,6.35-3.44,7.34-9.12,4.69-7.49,13.6-8.34,21-1.78,15.4-6.92,29.7-12.73,43.79-1.54,3.72-5.46,6.45-8.27,9.65-1,1.09-2.28,2.08-2.72,3.36-2.78,8.19-8.23,13.8-16,17.3a4.93,4.93,0,0,0-2,1.78,24.45,24.45,0,0,1-16.91,11.36c-.94.18-1.73,1.31-2.55,2A85,85,0,0,1,602,800.7c-20.66,4.11-41.78,5.92-62.77,3.17-10.08-1.31-20.17-3.35-29.78-7.9-8.23-3.89-15.37-9.5-23.15-13.37s-13.56-11-21.8-13.55c-9.18-2.83-13.38-10.48-19-17-2.61-3-6-5.36-8.92-8.15a12.18,12.18,0,0,1-2.35-3.56c-7.15-15-14.14-30.08-21.49-45-1-1.95-3.69-3-5.54-4.54-2.07-1.73-4.84-3.16-5.94-5.4-3.27-6.59-5.78-13.55-8.74-20.3-7.39-16.91-15.08-33.7-22.2-50.72a61.07,61.07,0,0,1-4.81-18c-.82-9.84,3.57-13.73,13.47-13.72Zm67.95,167.53h1.15l-.43-.71a12.14,12.14,0,0,1,1.47-1.27c6.2,5.17,12.29,10.47,18.48,15.64,3.93,3.27,7.79,6.71,12.11,9.4,2.2,1.37,5.68.63,8,1.93,5.43,3.07,10.47,6.83,15.74,10.22,2.45,1.58,5,3,7.59,4.38,4,2.17,7.86,4.49,12,6.33,1.63.73,4.59,1.24,5.51.36,6.8-6.56,13.25-13.49,18.54-19,2.9-.25,4.88.12,6.18-.65,2.93-1.75,5.53-4.06,9.5-7.08l5.88,5.29c.1-.23.82-2,1.74-4.28l7.18,8.91v-9.43c6.4,8.93,6.5,9,9.38,5.2l7.13,3.75,1-1.38L599.87,771l11.2,5.6c.84-4.32,3.12-4.15,6-2.32,3.26,2.09,6.65,4,9.84,6.16s5.61,1.8,8.16-1.13c5.59-6.42,11.41-12.65,17.43-19.28l1,2.27c7.07-6.66,14.22-13,20.89-19.87a34.53,34.53,0,0,0,6.45-10.1c1.84-4.18,2.6-8.83,4.18-13.14,2.22-6,5.53-11.76,7-18,2.8-11.6,4.53-23.46,6.91-35.17,1.25-6.1,2.94-12.11,4.44-18.16l.68-.15,2.69,19.88c5.48-3.55,6.17-5.9,6.74-14.25.83-12.16,1.44-24.4,3.28-36.43,2.27-14.84,4.8-29.53,2.33-44.61-.58-3.49-1-6.56-4.82-7.87s-6.72-.35-9.44,2.57c-1.53,1.64-3.75,2.64-5.65,3.93l-1.82-.58c0-2.75-.21-5.51,0-8.22s1.56-5.46,1.45-8.15c-.86-21.55,1.26-43.25-3.32-64.63-1.42-6.62-1.41-13.59-3.2-20.09-3.26-11.89-7.24-23.6-11.17-35.3-2.4-7.15-5-14.25-8-21.2-2.69-6.4-7.65-10.5-14.68-11.26-11.94-1.29-23.88-2.56-35.85-3.34-32.37-2.1-63.5,6.48-94.89,12-18.94,3.33-37.33,9.74-56,14.61-10.68,2.79-21.5,5.06-32.15,7.95-14.26,3.86-27.6,9.61-34.22,24A135.28,135.28,0,0,0,393,507a238.46,238.46,0,0,0,8.16,76.34c1.53,5.48,3.46,11.31.41,17.94-2.13-2-3.79-3.61-5.55-5.13-3.35-2.89-6.45-6.26-10.22-8.43-7.13-4.11-14.36.21-14,8.42a40.36,40.36,0,0,0,3.2,12.7c8.05,20.36,17.94,40,23.58,61.29a39.44,39.44,0,0,0,4.4,10.1c1.41,2.32,3.78,4.07,5.73,6.07,1-2.41,2.12-4.8,3.06-7.24.57-1.48.91-3,1.36-4.56l1.4.16a39.5,39.5,0,0,0,.73,4.65c1.82,6.64-.42,13.92,4.47,20.19,8.3,10.62,15.93,21.77,23.77,32.75C447.72,738.18,451.8,744.23,455.94,750.22Z" transform="translate(-356.34 -274.82)" style="fill:#020202"/><path d="M455.94,750.22c-4.14-6-8.22-12-12.45-18-7.84-11-15.47-22.13-23.77-32.75-4.89-6.27-2.65-13.55-4.47-20.19a39.5,39.5,0,0,1-.73-4.65l-1.4-.16c-.45,1.52-.79,3.08-1.36,4.56-.94,2.44-2,4.83-3.06,7.24-1.95-2-4.32-3.75-5.73-6.07a39.44,39.44,0,0,1-4.4-10.1C392.93,648.83,383,629.2,375,608.84a40.36,40.36,0,0,1-3.2-12.7c-.38-8.21,6.85-12.53,14-8.42,3.77,2.17,6.87,5.54,10.22,8.43,1.76,1.52,3.42,3.15,5.55,5.13,3-6.63,1.12-12.46-.41-17.94A238.46,238.46,0,0,1,393,507a135.28,135.28,0,0,1,12.41-50.2c6.62-14.42,20-20.17,34.22-24,10.65-2.89,21.47-5.16,32.15-7.95,18.68-4.87,37.07-11.28,56-14.61,31.39-5.51,62.52-14.09,94.89-12,12,.78,23.91,2,35.85,3.34,7,.76,12,4.86,14.68,11.26,2.93,6.95,5.57,14.05,8,21.2,3.93,11.7,7.91,23.41,11.17,35.3,1.79,6.5,1.78,13.47,3.2,20.09,4.58,21.38,2.46,43.08,3.32,64.63.11,2.69-1.18,5.41-1.45,8.15s0,5.47,0,8.22l1.82.58c1.9-1.29,4.12-2.29,5.65-3.93,2.72-2.92,5.67-3.86,9.44-2.57s4.24,4.38,4.82,7.87c2.47,15.08-.06,29.77-2.33,44.61-1.84,12-2.45,24.27-3.28,36.43-.57,8.35-1.26,10.7-6.74,14.25L704,647.77l-.68.15c-1.5,6.05-3.19,12.06-4.44,18.16-2.38,11.71-4.11,23.57-6.91,35.17-1.49,6.19-4.8,11.92-7,18-1.58,4.31-2.34,9-4.18,13.14a34.53,34.53,0,0,1-6.45,10.1c-6.67,6.84-13.82,13.21-20.89,19.87l-1-2.27c-6,6.63-11.84,12.86-17.43,19.28-2.55,2.93-5,3.3-8.16,1.13s-6.58-4.07-9.84-6.16c-2.86-1.83-5.14-2-6,2.32l-11.2-5.6,4.12,6.82-1,1.38-7.13-3.75c-2.88,3.78-3,3.73-9.38-5.2v9.43l-7.18-8.91c-.92,2.27-1.64,4.05-1.74,4.28l-5.88-5.29c-4,3-6.57,5.33-9.5,7.08-1.3.77-3.28.4-6.18.65-5.29,5.51-11.74,12.44-18.54,19-.92.88-3.88.37-5.51-.36-4.11-1.84-8-4.16-12-6.33-2.56-1.41-5.14-2.8-7.59-4.38-5.27-3.39-10.31-7.15-15.74-10.22-2.3-1.3-5.78-.56-8-1.93-4.32-2.69-8.18-6.13-12.11-9.4-6.19-5.17-12.28-10.47-18.48-15.64a12.14,12.14,0,0,0-1.47,1.27Z" transform="translate(-356.34 -274.82)" style="fill:#eaba8c"/><path d="M456.66,749.51l.43.71h-1.15Z" transform="translate(-356.34 -274.82)" style="fill:#eaba8c"/><path d="M560.31,505.13c1.18.28,2.57.25,3.51.89,4.23,2.84,7,1.55,10.52-1.93,14.85-14.78,30.25-29,45.08-43.82,4.54-4.53,8.71-5.57,14.54-3.14,10.13,4.22,20.45,8,30.68,11.94.71.28,1.32.82,2,2.34-2.64.22-5.28.64-7.92.62a42.71,42.71,0,0,0-26,8.17c-18.19,12.85-36.92,24.93-55.46,37.27-1,.68-2.91,1.65-3.43,1.24-5-3.85-9.72-8-14.53-12C559.58,506.18,560,505.66,560.31,505.13Z" transform="translate(-356.34 -274.82)"/><path d="M418.25,512c10.86-9.1,21.63-18.3,32.69-27.14,1.1-.88,4.16,0,6,.85,20.24,8.93,40.5,17.85,60.56,27.17,4.18,2,7,1.81,9.89-1.57a19.32,19.32,0,0,1,3.48-2.59l1.4.84c-1.3,2.61-2.51,5.29-3.94,7.84-5.53,9.87-5.55,9.81-16.54,7-21.26-5.35-42.58-10.53-63.81-16-6.05-1.57-11.49.2-17.08,1.69-3.93,1.05-7.85,2.15-11.78,3.22C418.83,512.9,418.54,512.46,418.25,512Z" transform="translate(-356.34 -274.82)"/><path d="M632.12,384.3A30.77,30.77,0,0,1,624,405.37a20.72,20.72,0,0,1-8,5.74,9.11,9.11,0,0,1-3,.63,3.48,3.48,0,0,1-3.78-3.64,16.74,16.74,0,0,1,1.36-6.28c.54-1.57,1.74-2.62,2.75-3.82a32.58,32.58,0,0,0,5.87-9.34,20.48,20.48,0,0,0,1.36-6.57,24.91,24.91,0,0,0-.57-6.21,8,8,0,0,1,3.07-7.37,5.11,5.11,0,0,1,5.6.6,1.52,1.52,0,0,1,.24.41A36.71,36.71,0,0,1,632.12,384.3Z" transform="translate(-356.34 -274.82)" style="fill:#ea3436"/><path d="M651.31,404.78a42.8,42.8,0,0,1,15.16,3.07c1.35.51,2.65,1.16,4,1.64a3,3,0,0,1,2,2.76c.26,2.62-1.49,6.17-4.26,7.25a5.21,5.21,0,0,1-3.31,0c-3.15-.84-6.24-1.87-9.45-2.47a16.76,16.76,0,0,0-12.2,2.39c-1.26.78-2.26,1.94-3.48,2.8a15.71,15.71,0,0,1-5.44,2.75c-2.18.51-3.86-.18-4.59-2a5.87,5.87,0,0,1-.29-3.19,16.09,16.09,0,0,1,6.18-9.93,22.85,22.85,0,0,1,12.49-5A27.9,27.9,0,0,1,651.31,404.78Z" transform="translate(-356.34 -274.82)" style="fill:#ea3436"/><path d="M668.61,395.15a20.34,20.34,0,0,1-10.34-3.08,25,25,0,0,1-4.5-2.76,27.59,27.59,0,0,1-6-8.1,34.52,34.52,0,0,1-4-13.13,10.67,10.67,0,0,1,.92-6.24,5.12,5.12,0,0,1,7.19-1.56,4.38,4.38,0,0,1,1.5,2.56c.8,2.94,1.51,5.92,2.55,8.79a20,20,0,0,0,4.67,7.85,12.63,12.63,0,0,0,7.42,3.58,15.48,15.48,0,0,1,5.71,1.67,6.16,6.16,0,0,1,2.78,2.77,4.65,4.65,0,0,1-1.65,5.62A10.14,10.14,0,0,1,668.61,395.15Z" transform="translate(-356.34 -274.82)" style="fill:#ea3436"/></svg>